<mxfile host="app.diagrams.net" modified="2022-09-02T06:16:47.117Z" agent="5.0 (Windows NT 10.0; Win64; x64) AppleWebKit/537.36 (KHTML, like Gecko) Chrome/96.0.4664.45 Safari/537.36" etag="9MGWBIDwgntE0_cU2leo" version="20.2.7" type="github">
  <diagram id="D3GTKcPtUlCCe3BEXBpv" name="Page-1">
    <mxGraphModel dx="1422" dy="762" grid="1" gridSize="10" guides="1" tooltips="1" connect="1" arrows="1" fold="1" page="1" pageScale="1" pageWidth="827" pageHeight="1169" math="0" shadow="0">
      <root>
        <mxCell id="0" />
        <mxCell id="1" parent="0" />
        <mxCell id="vZo6IUYXbk9Rqxm83_r6-5" value="" style="edgeStyle=orthogonalEdgeStyle;rounded=0;orthogonalLoop=1;jettySize=auto;html=1;" edge="1" parent="1" source="vZo6IUYXbk9Rqxm83_r6-1" target="vZo6IUYXbk9Rqxm83_r6-2">
          <mxGeometry relative="1" as="geometry" />
        </mxCell>
        <mxCell id="vZo6IUYXbk9Rqxm83_r6-1" value="商品质检" style="rounded=1;whiteSpace=wrap;html=1;" vertex="1" parent="1">
          <mxGeometry x="90" y="240" width="120" height="60" as="geometry" />
        </mxCell>
        <mxCell id="vZo6IUYXbk9Rqxm83_r6-6" value="" style="edgeStyle=orthogonalEdgeStyle;rounded=0;orthogonalLoop=1;jettySize=auto;html=1;" edge="1" parent="1" source="vZo6IUYXbk9Rqxm83_r6-2" target="vZo6IUYXbk9Rqxm83_r6-3">
          <mxGeometry relative="1" as="geometry" />
        </mxCell>
        <mxCell id="vZo6IUYXbk9Rqxm83_r6-2" value="撕质检码-拍照-贴质检码" style="rounded=1;whiteSpace=wrap;html=1;" vertex="1" parent="1">
          <mxGeometry x="280" y="240" width="120" height="60" as="geometry" />
        </mxCell>
        <mxCell id="vZo6IUYXbk9Rqxm83_r6-7" value="" style="edgeStyle=orthogonalEdgeStyle;rounded=0;orthogonalLoop=1;jettySize=auto;html=1;" edge="1" parent="1" source="vZo6IUYXbk9Rqxm83_r6-3" target="vZo6IUYXbk9Rqxm83_r6-4">
          <mxGeometry relative="1" as="geometry" />
        </mxCell>
        <mxCell id="vZo6IUYXbk9Rqxm83_r6-3" value="人工审核页面扫描质检码" style="rounded=1;whiteSpace=wrap;html=1;" vertex="1" parent="1">
          <mxGeometry x="480" y="240" width="120" height="60" as="geometry" />
        </mxCell>
        <mxCell id="vZo6IUYXbk9Rqxm83_r6-4" value="人工审核拍照图像和实物" style="rounded=1;whiteSpace=wrap;html=1;" vertex="1" parent="1">
          <mxGeometry x="690" y="240" width="120" height="60" as="geometry" />
        </mxCell>
      </root>
    </mxGraphModel>
  </diagram>
</mxfile>
